<?xml version="1.0" standalone="no"?>
<!DOCTYPE svg PUBLIC "-//W3C//DTD SVG 20010904//EN"
 "http://www.w3.org/TR/2001/REC-SVG-20010904/DTD/svg10.dtd">
<svg version="1.0" xmlns="http://www.w3.org/2000/svg"
 width="1946.000000pt" height="1594.000000pt" viewBox="0 0 1946.000000 1594.000000"
 preserveAspectRatio="xMidYMid meet">

<g transform="translate(0.000000,1594.000000) scale(0.100000,-0.100000)"
fill="#000000" stroke="none">
<path d="M0 7970 l0 -7970 9730 0 9730 0 0 7970 0 7970 -30 0 -30 0 0 -7950 0
-7950 -9620 0 -9620 0 0 7950 0 7950 -80 0 -80 0 0 -7970z"/>
<path d="M16600 14893 c-69 -9 -246 -66 -323 -103 -108 -53 -222 -138 -346
-256 -105 -101 -141 -144 -532 -627 -110 -137 -209 -258 -219 -270 -17 -21
-117 -144 -515 -632 -98 -121 -222 -272 -274 -336 -53 -65 -141 -172 -196
-239 -377 -462 -1110 -1338 -1294 -1545 -14 -16 -96 -111 -181 -210 -85 -98
-183 -211 -217 -250 -34 -38 -173 -200 -307 -360 -292 -345 -361 -422 -371
-413 -5 4 -2 49 6 100 19 130 18 255 -3 294 -21 38 -71 73 -171 119 -118 55
-213 76 -377 85 -136 8 -156 7 -320 -21 -192 -33 -299 -62 -523 -145 -358
-133 -691 -310 -1127 -600 -658 -437 -1231 -922 -1794 -1519 -296 -314 -623
-715 -686 -843 -45 -89 -37 -204 25 -384 136 -391 439 -748 635 -748 44 0 56
6 151 78 57 43 152 116 210 163 59 46 230 182 380 301 151 120 315 246 364
281 50 35 193 136 318 225 228 161 267 188 267 177 0 -5 -113 -140 -367 -441
l-112 -132 14 -79 c70 -384 115 -962 115 -1464 0 -208 -22 -662 -35 -729 -2
-14 -14 -131 -25 -260 -12 -129 -25 -262 -30 -295 -5 -33 -21 -136 -35 -230
-53 -351 -57 -393 -52 -570 4 -184 21 -262 75 -355 168 -291 660 -450 1388
-450 587 0 1094 87 1799 310 155 49 464 163 580 215 533 238 803 385 1126 612
438 307 756 638 868 902 50 117 56 150 56 296 -1 135 -2 143 -33 220 -72 174
-121 232 -599 711 -375 375 -551 562 -754 799 -665 779 -1079 1542 -1248 2300
-48 217 -50 190 17 256 32 31 79 86 104 120 65 92 341 408 608 698 68 75 145
159 170 186 25 28 102 111 171 185 69 74 188 205 265 290 76 85 377 391 668
680 1059 1050 1622 1622 2041 2075 650 703 1030 1198 1083 1408 15 58 15 180
1 232 -20 71 -63 121 -135 156 -59 29 -75 33 -167 35 -56 1 -118 0 -137 -3z
m34 -334 c58 -27 34 -118 -63 -239 -127 -158 -331 -297 -462 -315 -64 -9 -79
3 -79 63 0 37 8 58 42 109 78 121 306 309 444 366 68 29 84 31 118 16z m-4958
-4652 c-25 -33 -166 -167 -306 -292 -144 -128 -262 -204 -555 -360 -697 -371
-1935 -1138 -2615 -1618 -262 -185 -524 -387 -618 -476 -18 -17 -38 -31 -44
-31 -31 0 69 139 179 248 305 301 972 768 1968 1380 121 74 258 158 305 187
47 29 159 97 250 150 91 54 197 117 235 140 260 157 1219 713 1224 709 1 -1
-9 -18 -23 -37z m-544 -1343 c35 -323 87 -505 187 -655 33 -50 44 -77 52 -133
48 -328 80 -392 309 -602 51 -46 59 -60 105 -180 112 -293 162 -359 365 -487
138 -87 160 -117 209 -289 51 -176 70 -201 232 -301 126 -77 166 -135 211
-297 34 -124 69 -162 218 -239 86 -45 142 -84 186 -129 48 -49 61 -78 80 -169
31 -149 76 -206 234 -293 69 -38 86 -52 88 -73 6 -52 -81 -154 -202 -235 -82
-55 -158 -88 -306 -133 -191 -58 -242 -95 -375 -274 -87 -118 -135 -163 -207
-194 -57 -24 -97 -30 -254 -40 -195 -12 -254 -45 -381 -213 -39 -51 -91 -112
-115 -135 -88 -85 -222 -118 -378 -93 -41 7 -127 14 -190 17 -106 4 -120 3
-185 -21 -38 -15 -112 -53 -165 -85 -128 -78 -189 -102 -274 -108 -60 -4 -84
0 -156 23 -103 34 -200 37 -334 10 -85 -17 -92 -17 -155 0 -105 28 -441 176
-441 194 0 21 92 34 245 35 l160 0 74 34 c84 40 114 42 203 12 102 -34 238
-61 310 -61 89 0 142 21 254 102 118 86 155 104 251 124 69 14 95 15 225 4
305 -27 415 9 628 204 157 144 223 178 380 196 100 11 188 40 239 78 18 13 53
57 78 96 149 235 218 294 397 340 32 9 61 18 63 20 8 7 -113 102 -193 151
-174 108 -198 139 -225 296 -28 171 -67 230 -208 313 -142 84 -181 129 -206
242 -26 115 -56 191 -84 217 -14 14 -66 46 -116 72 -173 90 -201 126 -234 297
-26 135 -57 206 -102 241 -19 14 -78 39 -131 57 -113 37 -176 84 -197 148 -14
42 -14 50 14 176 34 154 17 193 -125 289 -144 97 -166 120 -219 231 -27 55
-63 153 -80 216 -34 130 -81 369 -81 416 0 52 6 53 -190 -39 -325 -153 -597
-238 -841 -262 -65 -7 -129 0 -129 13 0 4 42 22 93 41 107 39 361 160 462 221
206 125 449 296 615 434 150 126 265 227 273 242 17 30 32 6 39 -62z m-3494
-1729 c132 -307 143 -452 47 -650 -32 -67 -104 -162 -105 -139 0 6 11 43 25
83 14 40 29 103 34 139 14 114 -3 319 -43 515 -20 98 -36 183 -36 190 0 20 41
-53 78 -138z m1436 -782 c54 -86 94 -201 113 -319 15 -96 15 -114 0 -222 -15
-110 -53 -252 -68 -252 -3 0 -9 26 -12 58 -11 108 -57 547 -67 642 -6 52 -12
107 -15 123 -7 43 10 32 49 -30z"/>
<path d="M6766 5946 c-88 -33 -139 -117 -139 -231 0 -138 90 -234 201 -212 57
12 65 12 69 2 2 -6 -3 -19 -11 -30 -19 -26 -121 -33 -164 -11 -30 15 -32 15
-42 -3 -25 -48 -5 -126 43 -162 48 -36 145 -34 208 3 95 56 140 147 147 296
10 219 -71 349 -223 359 -27 2 -67 -3 -89 -11z"/>
<path d="M3227 5874 c-100 -18 -193 -61 -234 -108 l-33 -37 0 -524 c0 -573 1
-587 58 -648 51 -54 64 -57 289 -57 179 0 219 3 282 20 108 30 177 67 248 134
74 69 120 141 159 251 28 77 29 86 29 275 0 222 -9 270 -76 406 -116 237 -393
348 -722 288z m264 -506 c12 -47 8 -371 -5 -401 -5 -11 -17 -17 -28 -15 -20 3
-20 11 -20 228 1 124 1 226 2 228 0 1 9 2 20 2 14 0 22 -11 31 -42z"/>
<path d="M4611 5874 c-84 -22 -150 -63 -221 -134 -81 -82 -130 -174 -165 -305
-23 -87 -27 -120 -27 -255 0 -137 3 -167 26 -254 51 -192 153 -329 300 -401
42 -21 78 -36 80 -34 2 2 29 52 60 112 32 61 70 153 88 215 56 191 41 372 -42
502 -52 81 -63 189 -34 328 13 65 28 107 81 230 7 17 -76 15 -146 -4z"/>
<path d="M7630 5880 c-82 -14 -125 -29 -185 -65 -87 -52 -141 -110 -183 -194
-37 -75 -37 -75 -37 -205 0 -128 1 -133 31 -191 18 -33 43 -70 57 -83 23 -22
27 -22 89 -11 128 24 248 -18 311 -107 36 -51 48 -128 23 -137 -11 -4 -19 0
-23 11 -47 133 -118 187 -248 186 -58 0 -77 -4 -112 -27 -85 -54 -123 -130
-123 -244 0 -96 36 -207 77 -240 75 -61 251 -103 426 -103 267 1 452 115 523
322 59 173 12 407 -101 507 -79 69 -220 111 -321 96 -40 -6 -44 -4 -44 15 0
52 157 53 281 1 40 -17 79 -31 86 -31 23 0 53 126 53 219 0 147 -16 171 -159
237 -99 45 -294 66 -421 44z"/>
<path d="M5875 5865 c-74 -16 -184 -65 -208 -92 -12 -14 -27 -73 -47 -184 -33
-180 -97 -522 -104 -554 -28 -121 -57 -322 -52 -359 10 -67 54 -119 133 -158
64 -31 74 -33 173 -33 112 0 146 11 228 72 31 23 33 29 27 62 -4 20 -10 60
-14 90 l-6 55 -53 12 c-67 14 -100 32 -107 56 -11 33 4 39 47 17 25 -13 69
-23 112 -26 68 -5 113 5 199 42 14 6 17 2 17 -19 0 -20 -9 -30 -37 -45 -21
-10 -53 -22 -72 -26 l-34 -7 7 -71 c8 -84 28 -130 72 -163 97 -74 296 -72 406
4 87 60 86 55 38 291 -23 113 -69 339 -101 501 -33 162 -69 318 -80 346 -37
93 -143 171 -264 193 -77 14 -205 13 -280 -4z m164 -474 c6 -10 17 -58 26
-107 12 -70 13 -89 3 -96 -36 -22 -41 -8 -74 190 -4 27 -2 32 15 32 11 0 25
-8 30 -19z"/>
<path d="M4937 5853 c-21 -24 -73 -142 -91 -206 -48 -170 -42 -273 21 -386 54
-97 73 -170 73 -284 0 -128 -34 -256 -105 -399 -29 -59 -51 -109 -47 -112 15
-8 155 16 208 35 178 67 310 260 343 502 25 178 6 395 -43 518 -55 134 -144
244 -248 306 -72 42 -91 47 -111 26z"/>
<path d="M3421 4319 c-149 -25 -312 -152 -385 -300 -63 -130 -80 -210 -80
-399 0 -140 3 -178 22 -250 61 -233 186 -378 377 -442 99 -32 269 -33 371 -1
114 37 242 130 294 216 12 18 20 50 20 74 0 104 -72 326 -110 338 -28 9 -171
-12 -234 -34 -31 -11 -75 -30 -98 -43 -41 -22 -43 -25 -46 -76 -3 -59 -18 -65
-41 -16 -21 42 -28 408 -9 444 8 14 20 25 28 25 10 0 13 -15 11 -65 -3 -81 14
-107 103 -153 52 -27 72 -31 132 -31 188 0 291 139 256 346 -45 259 -308 417
-611 367z"/>
<path d="M6313 4310 c-63 -13 -117 -45 -158 -92 -41 -48 -40 -24 -10 -253 43
-332 158 -818 225 -955 12 -25 110 -69 188 -85 161 -33 342 -6 443 66 23 16
35 41 63 132 70 224 150 586 176 792 6 50 16 109 21 132 5 23 9 62 9 88 0 39
-5 51 -40 89 -125 136 -375 119 -471 -31 l-29 -47 0 -362 c0 -308 -2 -363 -15
-374 -8 -7 -22 -10 -30 -6 -13 5 -15 53 -15 358 0 350 0 353 -24 403 -28 60
-66 97 -126 124 -54 23 -149 33 -207 21z"/>
<path d="M4605 4289 c-375 -6 -426 -11 -474 -47 l-26 -19 0 -554 c0 -628 -1
-616 77 -683 62 -54 98 -58 493 -54 l350 3 24 70 c48 142 21 365 -46 382 -40
9 -390 -5 -435 -19 -33 -10 -41 -9 -48 3 -28 44 79 68 307 69 l142 0 13 43 c7
23 13 87 13 142 0 55 -6 119 -13 143 l-13 42 -214 0 -215 0 0 25 c0 14 6 25
13 25 6 0 102 1 212 3 191 2 201 3 232 25 46 33 67 109 60 216 -8 111 -30 183
-60 187 -12 2 -188 1 -392 -2z"/>
<path d="M5594 4292 l-401 -2 -26 -49 c-53 -97 -54 -270 -2 -387 l24 -54 90 0
90 0 47 50 c26 28 53 50 61 50 35 0 19 -35 -62 -132 -142 -169 -285 -362 -295
-399 -14 -49 -12 -143 5 -242 16 -91 27 -125 58 -169 l18 -28 357 0 c230 0
371 4 397 11 56 16 91 43 122 96 46 80 42 257 -9 357 l-20 39 -161 -6 c-109
-4 -180 -11 -217 -22 -69 -21 -92 -23 -97 -8 -6 17 33 49 76 62 21 6 72 14
112 18 l74 6 61 76 c88 110 151 202 177 257 19 43 22 64 21 179 -1 119 -3 136
-30 204 -16 41 -38 79 -49 85 -14 8 -141 10 -421 8z"/>
<path d="M7421 4275 c-49 -9 -81 -21 -97 -36 l-24 -22 0 -548 0 -548 24 -54
c28 -63 81 -111 142 -126 27 -7 175 -11 399 -11 l356 0 16 38 c48 115 45 305
-7 402 l-12 23 -197 -6 c-108 -3 -218 -11 -244 -17 -59 -15 -82 -3 -53 29 24
27 67 33 266 40 l175 6 15 30 c19 39 21 244 2 297 l-13 38 -216 2 c-133 2
-218 7 -220 13 -9 30 16 34 218 38 231 5 253 10 282 69 26 54 32 167 13 257
-8 40 -21 79 -27 87 -16 20 -689 19 -798 -1z"/>
<path d="M3682 2578 c-19 -19 -14 -38 11 -48 19 -8 17 -9 -15 -9 -80 -2 -118
-43 -118 -126 0 -38 5 -52 29 -76 31 -30 86 -40 94 -16 3 9 7 9 20 -1 40 -33
110 15 86 59 -5 10 -9 57 -9 104 0 47 -5 95 -10 106 -12 22 -68 27 -88 7z m-2
-170 c0 -23 -3 -29 -11 -21 -6 6 -8 20 -4 32 9 30 15 26 15 -11z"/>
<path d="M5813 2565 c-10 -14 -26 -35 -35 -47 -10 -11 -18 -27 -18 -35 0 -25
20 -53 38 -54 10 0 12 -3 5 -6 -18 -7 -17 -107 1 -122 8 -7 32 -11 53 -9 l38
3 3 66 c2 57 6 68 22 72 14 3 20 14 20 31 0 22 -4 26 -29 26 -17 0 -33 5 -36
10 -4 6 8 10 27 10 53 0 74 32 42 64 -10 10 -33 16 -64 16 -41 0 -52 -4 -67
-25z"/>
<path d="M3000 2519 c-30 -12 -39 -26 -33 -50 4 -16 12 -17 51 -12 33 4 43 3
38 -5 -4 -7 -20 -12 -37 -12 -40 0 -69 -32 -69 -75 0 -48 29 -75 80 -75 22 0
40 5 40 10 0 7 6 7 19 0 61 -32 99 2 83 77 -6 25 -8 52 -5 59 3 7 -3 27 -13
43 -27 46 -95 63 -154 40z m70 -139 c0 -5 -4 -10 -10 -10 -5 0 -10 5 -10 10 0
6 5 10 10 10 6 0 10 -4 10 -10z"/>
<path d="M4059 2501 l-29 -29 0 24 c0 22 -4 25 -32 22 -37 -3 -35 5 -23 -143
6 -84 8 -87 57 -83 l43 3 0 63 0 62 36 0 c40 0 49 11 49 61 0 22 -6 32 -26 39
-37 14 -43 13 -75 -19z"/>
<path d="M4400 2517 c-34 -17 -70 -74 -70 -111 0 -30 32 -94 54 -108 21 -14
121 -9 143 7 28 19 46 84 37 130 -13 72 -99 115 -164 82z m60 -107 c0 -16 -4
-32 -10 -35 -6 -4 -10 10 -10 35 0 25 4 39 10 35 6 -3 10 -19 10 -35z"/>
<path d="M4816 2509 c-21 -17 -26 -18 -26 -5 0 16 -35 23 -44 8 -2 -4 -1 -68
2 -142 7 -134 7 -135 34 -148 38 -18 78 -6 78 24 0 12 -7 27 -16 32 -12 7 -5
10 30 14 55 7 82 28 97 78 32 107 -74 203 -155 139z m54 -101 c0 -25 -3 -29
-10 -18 -13 20 -13 50 0 50 6 0 10 -15 10 -32z"/>
<path d="M5416 2511 c-55 -36 -70 -98 -42 -166 18 -43 42 -55 106 -55 44 0 56
5 81 29 25 25 29 37 29 83 0 60 -16 90 -60 113 -39 20 -79 19 -114 -4z m74
-101 c0 -16 -4 -30 -10 -30 -5 0 -10 14 -10 30 0 17 5 30 10 30 6 0 10 -13 10
-30z"/>
<path d="M6380 2517 c-17 -8 -25 -21 -25 -37 0 -23 3 -25 43 -22 25 2 42 -1
42 -7 0 -6 -14 -11 -30 -11 -38 0 -80 -39 -80 -73 0 -13 9 -36 21 -51 16 -20
29 -26 60 -26 30 0 39 4 39 17 0 15 1 15 18 0 22 -20 65 -22 81 -3 13 15 5
125 -12 170 -18 48 -102 71 -157 43z"/>
<path d="M6838 2514 c-16 -8 -28 -22 -28 -31 0 -9 -3 -13 -7 -9 -4 4 -8 15 -8
24 0 12 -9 17 -30 17 l-30 0 4 -100 c2 -55 8 -106 14 -113 6 -8 26 -12 51 -10
l41 3 3 54 c2 37 -1 57 -10 62 -8 6 3 9 29 9 31 0 45 5 53 19 16 31 12 59 -12
75 -27 19 -35 19 -70 0z"/>
<path d="M7158 2514 c-54 -29 -74 -113 -43 -174 20 -39 43 -50 108 -50 49 0
58 3 81 30 88 106 -27 259 -146 194z m72 -109 c0 -13 -4 -27 -10 -30 -6 -4
-10 8 -10 30 0 22 4 34 10 30 6 -3 10 -17 10 -30z"/>
<path d="M7617 2510 c-30 -24 -37 -25 -37 -5 0 11 -11 15 -36 15 l-36 0 7
-102 c4 -57 12 -109 18 -116 6 -8 25 -12 46 -10 l36 3 3 68 c4 82 22 90 22 8
0 -68 13 -84 62 -79 l33 3 -3 68 c-4 80 14 91 20 13 5 -66 20 -86 63 -86 48 0
55 15 48 105 -5 70 -10 83 -34 107 -31 32 -48 34 -87 14 -24 -12 -30 -12 -47
0 -26 19 -48 18 -78 -6z"/>
<path d="M8090 2517 c-17 -8 -25 -21 -25 -37 0 -23 3 -25 43 -22 25 2 42 -1
42 -7 0 -6 -13 -11 -29 -11 -44 0 -73 -29 -74 -74 -1 -29 5 -43 22 -57 25 -21
81 -25 98 -8 8 8 13 8 17 0 4 -6 20 -11 36 -11 38 0 67 39 51 69 -6 11 -11 38
-11 61 0 23 -5 50 -10 61 -24 43 -108 62 -160 36z m75 -137 c3 -5 1 -10 -4
-10 -6 0 -11 5 -11 10 0 6 2 10 4 10 3 0 8 -4 11 -10z"/>
</g>
</svg>
